<?xml version="1.0" standalone="no"?>
<!DOCTYPE svg PUBLIC "-//W3C//DTD SVG 20010904//EN"
 "http://www.w3.org/TR/2001/REC-SVG-20010904/DTD/svg10.dtd">
<svg version="1.0" xmlns="http://www.w3.org/2000/svg"
 width="512.000000pt" height="512.000000pt" viewBox="0 0 512.000000 512.000000"
 preserveAspectRatio="xMidYMid meet">
<metadata>
Created by potrace 1.11, written by Peter Selinger 2001-2013
</metadata>
<g transform="translate(0.000000,512.000000) scale(0.100000,-0.100000)"
fill="#000000" stroke="none">
<path d="M2379 5116 c-2 -2 -40 -6 -83 -10 -44 -4 -82 -8 -85 -10 -3 -2 -31
-7 -61 -11 -30 -3 -93 -15 -140 -25 -569 -126 -1077 -441 -1441 -893 -82 -101
-219 -299 -219 -316 0 -5 -3 -11 -8 -13 -7 -3 -90 -166 -131 -259 -102 -230
-169 -488 -198 -759 -15 -136 -8 -503 11 -615 3 -16 8 -43 10 -60 13 -97 50
-247 92 -377 14 -43 22 -83 18 -89 -4 -7 -3 -9 4 -5 6 3 13 -4 17 -16 3 -13
23 -61 43 -108 208 -483 559 -890 1005 -1166 80 -50 317 -174 332 -174 3 0 24
-9 48 -19 158 -72 415 -140 622 -166 28 -4 77 -10 110 -15 62 -8 451 -5 517 4
201 27 361 64 536 122 647 215 1188 693 1489 1314 43 89 113 263 128 320 1 3
5 12 8 20 10 24 64 248 77 318 27 152 34 250 35 447 0 167 -9 325 -20 357 -2
7 -6 31 -9 53 -14 122 -86 397 -131 500 -7 17 -25 60 -40 96 -14 37 -48 109
-76 160 -27 52 -57 110 -66 129 -10 19 -20 37 -23 40 -3 3 -21 30 -40 60 -129
205 -350 449 -556 612 -64 51 -254 182 -313 216 -37 21 -260 132 -266 132 -3
0 -24 9 -48 19 -72 33 -216 81 -340 112 -196 50 -358 70 -593 74 -117 2 -213
3 -215 1z"/>
</g>
</svg>
